<svg xmlns="http://www.w3.org/2000/svg" width="102.906" height="34.441" viewBox="0 0 102.906 34.441">
  <g id="appstore" transform="translate(-13.4 -21.5)">
    <g id="Group_45" data-name="Group 45" transform="translate(13.4 21.5)">
      <g id="Group_43" data-name="Group 43" transform="translate(0 0)">
        <path id="Path_29" data-name="Path 29" d="M108.112,21.5H20.664c-.266,0-.532,0-.8.017a10.119,10.119,0,0,0-1.729.15,6.237,6.237,0,0,0-1.629.532,5.558,5.558,0,0,0-1.4,1.014,5.275,5.275,0,0,0-1.014,1.4,5.206,5.206,0,0,0-.532,1.629,9.976,9.976,0,0,0-.15,1.729c0,.266-.017.532-.017.8v19.88c0,.266,0,.532.017.8a12.136,12.136,0,0,0,.15,1.729,6.352,6.352,0,0,0,.532,1.646,5.558,5.558,0,0,0,1.014,1.4,5.275,5.275,0,0,0,1.4,1.014,5.71,5.71,0,0,0,1.629.549,9.976,9.976,0,0,0,1.729.15c.266,0,.532.017.8.017h88.379c.266,0,.532,0,.8-.017a9.786,9.786,0,0,0,1.712-.15,5.815,5.815,0,0,0,1.646-.549,5.559,5.559,0,0,0,1.4-1.014,5.275,5.275,0,0,0,1.014-1.4,5.615,5.615,0,0,0,.532-1.646,11.94,11.94,0,0,0,.166-1.729V27.983a12.169,12.169,0,0,0-.166-1.729,5.674,5.674,0,0,0-.532-1.629,5.536,5.536,0,0,0-2.41-2.41,5.164,5.164,0,0,0-1.646-.532,9.928,9.928,0,0,0-1.712-.15c-.266,0-.532-.017-.8-.017-.3-.017-.615-.017-.931-.017Z" transform="translate(-13.4 -21.5)" fill="#dcdcdc"/>
        <path id="Path_30" data-name="Path 30" d="M24.432,58.978c-.266,0-.515,0-.781-.017a10.548,10.548,0,0,1-1.612-.133,5.336,5.336,0,0,1-1.429-.465,4.46,4.46,0,0,1-1.2-.881,4.694,4.694,0,0,1-1.346-2.626,12.914,12.914,0,0,1-.15-1.612c0-.183-.017-.781-.017-.781V32.6s0-.6.017-.765a8.82,8.82,0,0,1,.15-1.612,4.807,4.807,0,0,1,.465-1.429,4.132,4.132,0,0,1,.881-1.2,4.935,4.935,0,0,1,1.213-.881,4.807,4.807,0,0,1,1.429-.465,10.548,10.548,0,0,1,1.612-.133l.781-.017h88.362l.781.017a10.335,10.335,0,0,1,1.6.133,5.336,5.336,0,0,1,1.429.465,4.824,4.824,0,0,1,2.078,2.078,5.421,5.421,0,0,1,.465,1.413,13.181,13.181,0,0,1,.15,1.629V53.26a12.945,12.945,0,0,1-.15,1.6,4.807,4.807,0,0,1-.465,1.429,4.46,4.46,0,0,1-.881,1.2,5.175,5.175,0,0,1-1.2.881,4.807,4.807,0,0,1-1.429.465,10.378,10.378,0,0,1-1.612.133c-.249,0-.515.017-.765.017H24.432Z" transform="translate(-17.152 -25.335)" fill="#171717"/>
      </g>
      <g id="_Group_" transform="translate(8.273 6.749)">
        <g id="_Group_2">
          <g id="_Group_3">
            <path id="_Path_" d="M76.406,96.061a4.391,4.391,0,0,1,2.111-3.707,4.559,4.559,0,0,0-3.574-1.928c-1.5-.15-2.959.9-3.723.9-.781,0-1.961-.881-3.225-.864A4.763,4.763,0,0,0,63.99,92.9c-1.729,2.992-.432,7.4,1.213,9.807.831,1.18,1.8,2.51,3.058,2.46,1.247-.05,1.7-.8,3.208-.8,1.479,0,1.912.8,3.208.765,1.33-.017,2.177-1.2,2.975-2.394a10.17,10.17,0,0,0,1.363-2.759A4.226,4.226,0,0,1,76.406,96.061Z" transform="translate(-63.17 -85.706)" fill="#dcdcdc"/>
            <path id="_Path_2" d="M113.47,65.225a4.347,4.347,0,0,0,1-3.125,4.492,4.492,0,0,0-2.876,1.479,4.166,4.166,0,0,0-1.031,3.009A3.617,3.617,0,0,0,113.47,65.225Z" transform="translate(-102.678 -62.1)" fill="#dcdcdc"/>
          </g>
        </g>
        <g id="Group_44" data-name="Group 44" transform="translate(21.331 8.643)">
          <path id="Path_31" data-name="Path 31" d="M198.282,122.879h-4.072l-.981,2.892H191.5l3.856-10.671h1.8l3.856,10.671h-1.745Zm-3.64-1.33h3.225l-1.6-4.687h-.05Z" transform="translate(-191.5 -114.934)" fill="#dcdcdc"/>
          <path id="Path_32" data-name="Path 32" d="M262.114,135.965c0,2.427-1.3,3.973-3.241,3.973a2.635,2.635,0,0,1-2.443-1.363H256.4v3.856h-1.6V132.076h1.546v1.3h.033a2.768,2.768,0,0,1,2.477-1.38C260.817,131.993,262.114,133.555,262.114,135.965Zm-1.646,0c0-1.579-.814-2.61-2.061-2.61-1.213,0-2.044,1.064-2.044,2.61,0,1.562.814,2.626,2.044,2.626,1.247-.017,2.061-1.047,2.061-2.626Z" transform="translate(-244.278 -129.017)" fill="#dcdcdc"/>
          <path id="Path_33" data-name="Path 33" d="M313.714,135.965c0,2.427-1.3,3.973-3.241,3.973a2.635,2.635,0,0,1-2.443-1.363H308v3.856h-1.6V132.076h1.546v1.3h.033a2.768,2.768,0,0,1,2.477-1.38C312.4,131.993,313.714,133.555,313.714,135.965Zm-1.646,0c0-1.579-.814-2.61-2.061-2.61-1.213,0-2.044,1.064-2.044,2.61,0,1.562.814,2.626,2.044,2.626C311.254,138.575,312.068,137.544,312.068,135.965Z" transform="translate(-287.301 -129.017)" fill="#dcdcdc"/>
          <path id="Path_34" data-name="Path 34" d="M376.4,121.962c.116,1.064,1.147,1.762,2.56,1.762,1.346,0,2.31-.7,2.31-1.646,0-.831-.582-1.33-1.961-1.662l-1.38-.332c-1.961-.465-2.876-1.4-2.876-2.876,0-1.845,1.612-3.108,3.89-3.108,2.261,0,3.806,1.263,3.856,3.108h-1.612a2,2,0,0,0-2.261-1.712c-1.28,0-2.161.648-2.161,1.6,0,.748.565,1.2,1.945,1.546l1.18.283c2.194.515,3.108,1.4,3.108,2.959,0,1.995-1.6,3.241-4.122,3.241-2.36,0-3.973-1.23-4.072-3.158Z" transform="translate(-344.332 -114.1)" fill="#dcdcdc"/>
          <path id="Path_35" data-name="Path 35" d="M430.926,121.4v1.845h1.479v1.263h-1.479V128.8c0,.665.3.981.947.981.183,0,.349-.017.532-.033v1.263a3.937,3.937,0,0,1-.881.066c-1.579,0-2.194-.6-2.194-2.094v-4.455H428.2v-1.263h1.13v-1.845h1.6Z" transform="translate(-388.856 -120.187)" fill="#dcdcdc"/>
          <path id="Path_36" data-name="Path 36" d="M458.7,135.889c0-2.443,1.446-3.989,3.69-3.989,2.261,0,3.69,1.546,3.69,3.989,0,2.46-1.43,3.989-3.69,3.989S458.7,138.349,458.7,135.889Zm5.751,0c0-1.679-.765-2.676-2.061-2.676s-2.061,1-2.061,2.676.765,2.676,2.061,2.676,2.061-1,2.061-2.676Z" transform="translate(-414.286 -128.941)" fill="#dcdcdc"/>
          <path id="Path_37" data-name="Path 37" d="M511,132.076h1.529v1.33h.033a1.875,1.875,0,0,1,1.878-1.413,2.065,2.065,0,0,1,.549.066v1.5a2.648,2.648,0,0,0-.715-.1A1.615,1.615,0,0,0,512.6,135a1.255,1.255,0,0,0,.017.249v4.621H511Z" transform="translate(-457.893 -129.018)" fill="#dcdcdc"/>
          <path id="Path_38" data-name="Path 38" d="M544.031,137.4c-.216,1.413-1.6,2.377-3.358,2.377-2.261,0-3.673-1.513-3.673-3.956s1.413-4.023,3.607-4.023c2.161,0,3.507,1.479,3.507,3.84v.549h-5.5v.1a2.029,2.029,0,0,0,1.845,2.194,1.25,1.25,0,0,0,.249,0,1.745,1.745,0,0,0,1.8-1.1Zm-5.4-2.31h3.89a1.887,1.887,0,0,0-1.762-1.978h-.15a1.969,1.969,0,0,0-1.978,1.961Z" transform="translate(-479.571 -128.858)" fill="#dcdcdc"/>
        </g>
      </g>
    </g>
    <g id="_Group_4" transform="translate(44.084 28.764)">
      <g id="Group_46" data-name="Group 46">
        <path id="Path_39" data-name="Path 39" d="M199.862,66.674a2.27,2.27,0,0,1,2.427,2.094,2.031,2.031,0,0,1-.017.449,2.27,2.27,0,0,1-2.41,2.576H198v-5.12Zm-1.064,4.4h.964a1.638,1.638,0,0,0,1.712-1.513,2.226,2.226,0,0,0-.017-.332,1.637,1.637,0,0,0-1.38-1.828,1.908,1.908,0,0,0-.316-.017H198.8Z" transform="translate(-198 -66.425)" fill="#dcdcdc"/>
        <path id="Path_40" data-name="Path 40" d="M229.017,75.85a1.828,1.828,0,1,1,3.64-.349,1.227,1.227,0,0,1,0,.349,1.838,1.838,0,1,1-3.657.366A2.572,2.572,0,0,1,229.017,75.85Zm2.859,0c0-.831-.382-1.33-1.031-1.33-.665,0-1.031.5-1.031,1.33,0,.848.366,1.33,1.031,1.33s1.031-.482,1.031-1.33Z" transform="translate(-223.847 -72.409)" fill="#dcdcdc"/>
        <path id="Path_41" data-name="Path 41" d="M258.705,78.173h-.8l-.8-2.859h-.066l-.8,2.859h-.781L254.4,74.3h.781l.7,2.959h.05l.8-2.959h.731l.8,2.959h.066l.7-2.959h.765Z" transform="translate(-245.025 -72.787)" fill="#dcdcdc"/>
        <path id="Path_42" data-name="Path 42" d="M292.017,73.938h.731v.615h.05a1.151,1.151,0,0,1,1.164-.681,1.252,1.252,0,0,1,1.346,1.164,1.612,1.612,0,0,1-.017.283v2.51h-.765V75.484c0-.615-.266-.931-.831-.931a.9.9,0,0,0-.931.848v2.394H292Z" transform="translate(-276.375 -72.425)" fill="#dcdcdc"/>
        <path id="Path_43" data-name="Path 43" d="M319.2,65.2h.765v5.386H319.2Z" transform="translate(-299.054 -65.2)" fill="#dcdcdc"/>
        <path id="Path_44" data-name="Path 44" d="M330.117,75.85a1.828,1.828,0,1,1,3.64-.349,1.227,1.227,0,0,1,0,.349,1.838,1.838,0,1,1-3.657.366A2.572,2.572,0,0,1,330.117,75.85Zm2.859,0c0-.831-.382-1.33-1.031-1.33-.665,0-1.031.5-1.031,1.33,0,.848.366,1.33,1.031,1.33C332.593,77.18,332.976,76.7,332.976,75.85Z" transform="translate(-308.142 -72.409)" fill="#dcdcdc"/>
        <path id="Path_45" data-name="Path 45" d="M356.917,76.659c0-.7.515-1.1,1.446-1.164l1.047-.066V75.1c0-.416-.266-.632-.8-.632-.432,0-.715.15-.814.432h-.748c.083-.665.7-1.1,1.579-1.1.964,0,1.513.482,1.513,1.3v2.643h-.731v-.549h-.066a1.321,1.321,0,0,1-1.164.615,1.162,1.162,0,0,1-1.28-1.047C356.917,76.742,356.917,76.692,356.917,76.659Zm2.493-.332v-.332l-.947.066c-.532.033-.781.216-.781.565s.3.549.715.549a.913.913,0,0,0,1-.814C359.393,76.343,359.393,76.343,359.41,76.327Z" transform="translate(-330.488 -72.371)" fill="#dcdcdc"/>
        <path id="Path_46" data-name="Path 46" d="M382.6,68.641c0-1.23.632-1.995,1.612-1.995a1.267,1.267,0,0,1,1.18.682h.05V65.2h.765v5.386h-.731V69.97h-.066a1.354,1.354,0,0,1-1.213.681C383.215,70.652,382.6,69.871,382.6,68.641Zm.781,0c0,.814.382,1.313,1.031,1.313s1.047-.5,1.047-1.313-.4-1.313-1.047-1.313c-.632,0-1.031.5-1.031,1.313Z" transform="translate(-351.916 -65.2)" fill="#dcdcdc"/>
        <path id="Path_47" data-name="Path 47" d="M423.217,75.85a1.828,1.828,0,1,1,3.64-.349,1.229,1.229,0,0,1,0,.349,1.838,1.838,0,1,1-3.657.366A2.816,2.816,0,0,0,423.217,75.85Zm2.876,0c0-.831-.382-1.33-1.031-1.33-.665,0-1.031.5-1.031,1.33,0,.848.366,1.33,1.031,1.33C425.71,77.18,426.092,76.7,426.092,75.85Z" transform="translate(-385.767 -72.409)" fill="#dcdcdc"/>
        <path id="Path_48" data-name="Path 48" d="M451.417,73.938h.731v.615h.05a1.151,1.151,0,0,1,1.164-.681,1.252,1.252,0,0,1,1.346,1.164,1.612,1.612,0,0,1-.017.283v2.51h-.765V75.484c0-.615-.266-.931-.831-.931a.9.9,0,0,0-.931.848v2.394H451.4V73.938Z" transform="translate(-409.28 -72.425)" fill="#dcdcdc"/>
        <path id="Path_49" data-name="Path 49" d="M490.363,68.5v.981h.831v.648h-.831v1.995c0,.4.166.582.549.582a1.807,1.807,0,0,0,.3-.017v.632a3.5,3.5,0,0,1-.416.033c-.848,0-1.18-.3-1.18-1.047V70.129H489v-.648h.615V68.5Z" transform="translate(-440.63 -67.951)" fill="#dcdcdc"/>
        <path id="Path_50" data-name="Path 50" d="M508.517,65.2h.765v2.128h.066a1.226,1.226,0,0,1,1.18-.7,1.29,1.29,0,0,1,1.346,1.2,1.022,1.022,0,0,1-.017.233v2.493h-.781V68.275c0-.615-.283-.931-.831-.931a.922.922,0,0,0-.981.831v2.41H508.5Z" transform="translate(-456.889 -65.2)" fill="#dcdcdc"/>
        <path id="Path_51" data-name="Path 51" d="M537.891,76.709a1.562,1.562,0,0,1-1.679,1.114A1.774,1.774,0,0,1,534.4,76.11a1.523,1.523,0,0,1,.017-.283,1.783,1.783,0,0,1,1.529-2.011,1.258,1.258,0,0,1,.249-.017c1.08,0,1.729.731,1.729,1.945v.266H535.2v.05a1.026,1.026,0,0,0,.931,1.114h.1a.907.907,0,0,0,.914-.465ZM535.2,75.462h1.961a.932.932,0,0,0-.864-1h-.083a.986.986,0,0,0-1,.981c-.017,0-.017,0-.017.017Z" transform="translate(-478.484 -72.371)" fill="#dcdcdc"/>
      </g>
    </g>
  </g>
</svg>
