<svg xmlns="http://www.w3.org/2000/svg" width="9.965" height="12.264" viewBox="0 0 9.965 12.264">
  <g id="contact" transform="translate(-48)">
    <g id="Group_34" data-name="Group 34" transform="translate(48)">
      <path id="Path_23" data-name="Path 23" d="M57.582,1.533h-1.15V.383A.383.383,0,0,0,56.049,0h-6.9A1.151,1.151,0,0,0,48,1.15v9.582a1.535,1.535,0,0,0,1.533,1.533h8.049a.383.383,0,0,0,.383-.383V1.916A.383.383,0,0,0,57.582,1.533ZM55.665,9.582a.383.383,0,0,1-.383.383h-4.6a.383.383,0,0,1-.383-.383V8.815A1.918,1.918,0,0,1,52.216,6.9h1.533a1.918,1.918,0,0,1,1.916,1.916ZM51.449,4.6a1.533,1.533,0,1,1,1.533,1.533A1.535,1.535,0,0,1,51.449,4.6Zm4.216-3.066H49.15a.383.383,0,0,1,0-.767h6.515Z" transform="translate(-48)" fill="#fff"/>
    </g>
  </g>
</svg>
