<svg xmlns="http://www.w3.org/2000/svg" width="20.953" height="20.813" viewBox="0 0 20.953 20.813">
  <g id="facebook" transform="translate(0 -0.14)">
    <path id="Path_81" data-name="Path 81" d="M20.953,10.617A10.473,10.473,0,0,1,12.81,20.823v-8.7h2.518V9.214H12.784V8.565c0-1.246.545-2.258,1.842-2.258a4.28,4.28,0,0,1,1.273.182l.155-3.036a7.573,7.573,0,0,0-2.1-.26,5.143,5.143,0,0,0-3.5,1.272A5.784,5.784,0,0,0,8.841,8.721v.493H7.18v2.906H8.84v8.833A10.471,10.471,0,1,1,20.953,10.617Z" transform="translate(0 0)" fill="#00b4ff"/>
  </g>
</svg>
