<svg id="Google_Play_Store_badge_EN" xmlns="http://www.w3.org/2000/svg" xmlns:xlink="http://www.w3.org/1999/xlink" width="120.105" height="35.441" viewBox="0 0 120.105 35.441">
  <defs>
    <linearGradient id="linear-gradient" x1="2.472" y1="1.035" x2="2.361" y2="1.005" gradientUnits="objectBoundingBox">
      <stop offset="0" stop-color="#00a0ff"/>
      <stop offset="0.007" stop-color="#00a1ff"/>
      <stop offset="0.26" stop-color="#00beff"/>
      <stop offset="0.512" stop-color="#00d2ff"/>
      <stop offset="0.76" stop-color="#00dfff"/>
      <stop offset="1" stop-color="#00e3ff"/>
    </linearGradient>
    <linearGradient id="linear-gradient-2" x1="1.95" y1="1.879" x2="1.69" y2="1.879" gradientUnits="objectBoundingBox">
      <stop offset="0" stop-color="#ffe000"/>
      <stop offset="0.409" stop-color="#ffbd00"/>
      <stop offset="0.775" stop-color="orange"/>
      <stop offset="1" stop-color="#ff9c00"/>
    </linearGradient>
    <linearGradient id="linear-gradient-3" x1="1.926" y1="0.946" x2="1.835" y2="0.793" gradientUnits="objectBoundingBox">
      <stop offset="0" stop-color="#ff3a44"/>
      <stop offset="1" stop-color="#c31162"/>
    </linearGradient>
    <linearGradient id="linear-gradient-4" x1="1.856" y1="2.093" x2="1.897" y2="2.025" gradientUnits="objectBoundingBox">
      <stop offset="0" stop-color="#32a071"/>
      <stop offset="0.068" stop-color="#2da771"/>
      <stop offset="0.476" stop-color="#15cf74"/>
      <stop offset="0.801" stop-color="#06e775"/>
      <stop offset="1" stop-color="#00f076"/>
    </linearGradient>
  </defs>
  <path id="Path_52" data-name="Path 52" d="M115.655,35.441H4.45A4.452,4.452,0,0,1,0,31.011V4.43A4.447,4.447,0,0,1,4.45,0H115.655a4.448,4.448,0,0,1,4.45,4.43V31.011A4.454,4.454,0,0,1,115.655,35.441Z" fill="none" fill-rule="evenodd"/>
  <path id="Path_53" data-name="Path 53" d="M115.655.709A3.741,3.741,0,0,1,119.4,4.43V31.011a3.734,3.734,0,0,1-3.741,3.721H4.45A3.741,3.741,0,0,1,.709,31.011V4.43A3.734,3.734,0,0,1,4.45.709Zm0-.709H4.45A4.452,4.452,0,0,0,0,4.43V31.011a4.447,4.447,0,0,0,4.45,4.43H115.655a4.448,4.448,0,0,0,4.45-4.43V4.43A4.454,4.454,0,0,0,115.655,0Z" fill="#dcdcdc" fill-rule="evenodd"/>
  <path id="Path_54" data-name="Path 54" d="M1681.02,277.029a2.7,2.7,0,0,1-2.013-.833,2.837,2.837,0,0,1-.813-2.033,2.774,2.774,0,0,1,.813-2.031,2.688,2.688,0,0,1,2.011-.833,2.724,2.724,0,0,1,2.013.833,2.942,2.942,0,0,1,0,4.061A2.674,2.674,0,0,1,1681.02,277.029Zm-23.865,0a2.8,2.8,0,0,1-2.022-.822,2.864,2.864,0,0,1,2.022-4.905,2.817,2.817,0,0,1,1.129.234,2.284,2.284,0,0,1,.86.614l.053.064-.6.588-.062-.073a1.7,1.7,0,0,0-1.39-.6,1.921,1.921,0,0,0-1.385.566,2.148,2.148,0,0,0,0,2.943,2.025,2.025,0,0,0,2.808,0,1.531,1.531,0,0,0,.406-.921h-1.92v-.826h2.744l.011.075a3.012,3.012,0,0,1,.04.415,2.488,2.488,0,0,1-.685,1.834A2.673,2.673,0,0,1,1657.155,277.029Zm31.731-.117h-.846l-2.592-4.147.022.747v3.4h-.846v-5.491h.966l.026.042,2.437,3.906-.022-.745v-3.2h.855Zm-14.225,0h-.857v-4.667h-1.487v-.826h3.829v.826h-1.487v4.667Zm-3.042,0h-.855v-5.493h.855Zm-4.806,0h-.855v-4.667h-1.487v-.826h3.829v.826h-1.487Zm-2.883-.009h-3.279v-5.484h3.279v.826h-2.422v1.507h2.185v.818h-2.185v1.507h2.422Zm15.705-1.275a1.892,1.892,0,0,0,1.385.574,1.844,1.844,0,0,0,1.385-.574,2.177,2.177,0,0,0,0-2.925,1.9,1.9,0,0,0-1.385-.574,1.836,1.836,0,0,0-1.383.574,2.18,2.18,0,0,0,0,2.925Z" transform="translate(-1617.748 -265.306)" fill="#fff"/>
  <path id="Path_55" data-name="Path 55" d="M1670.682,687.185a3.769,3.769,0,1,0,3.781,3.769A3.71,3.71,0,0,0,1670.682,687.185Zm0,6.045a2.291,2.291,0,1,1,2.125-2.285A2.181,2.181,0,0,1,1670.682,693.23Zm-8.248-6.045a3.769,3.769,0,1,0,3.781,3.769A3.71,3.71,0,0,0,1662.434,687.185Zm0,6.045a2.291,2.291,0,1,1,2.126-2.285A2.181,2.181,0,0,1,1662.434,693.23Zm-9.814-4.894v1.6h3.829a3.363,3.363,0,0,1-.866,2.008,3.907,3.907,0,0,1-2.954,1.171,4.254,4.254,0,0,1,0-8.507,4.087,4.087,0,0,1,2.883,1.142l1.131-1.131a5.563,5.563,0,0,0-4.006-1.615,5.849,5.849,0,1,0,0,11.7,5.354,5.354,0,0,0,4.085-1.644,5.293,5.293,0,0,0,1.387-3.741,4.922,4.922,0,0,0-.088-.994h-5.4S1652.619,688.336,1652.619,688.336Zm40.145,1.242a3.5,3.5,0,0,0-3.228-2.4,3.581,3.581,0,0,0-3.553,3.769,3.684,3.684,0,0,0,3.74,3.769,3.742,3.742,0,0,0,3.14-1.673l-1.279-.857a2.144,2.144,0,0,1-1.852,1.043,1.925,1.925,0,0,1-1.832-1.142l5.04-2.088S1692.764,689.578,1692.764,689.578Zm-5.139,1.259a2.069,2.069,0,0,1,1.969-2.2,1.453,1.453,0,0,1,1.4.8Zm-4.094,3.652h1.655V683.415h-1.655Zm-2.718-6.467h-.06a2.611,2.611,0,0,0-1.989-.846,3.769,3.769,0,0,0,0,7.532,2.6,2.6,0,0,0,1.989-.857h.06v.541c0,1.438-.769,2.214-2.009,2.214a2.09,2.09,0,0,1-1.9-1.339l-1.438.6a3.6,3.6,0,0,0,3.336,2.225c1.94,0,3.584-1.142,3.584-3.929V687.4h-1.564v.621Zm-1.9,5.208a2.292,2.292,0,0,1,0-4.567,2.119,2.119,0,0,1,2.009,2.294A2.093,2.093,0,0,1,1678.913,693.23Zm21.6-9.815h-3.957V694.49h1.655V690.3h2.3a3.445,3.445,0,1,0,0-6.88Zm.049,5.334h-2.353v-3.8h2.353a1.9,1.9,0,1,1,0,3.8Zm10.219-1.584a3.117,3.117,0,0,0-2.954,1.693l1.467.61a1.573,1.573,0,0,1,1.507-.818,1.6,1.6,0,0,1,1.743,1.427v.117a3.706,3.706,0,0,0-1.723-.424c-1.584,0-3.191.866-3.191,2.49a2.56,2.56,0,0,0,2.746,2.441,2.33,2.33,0,0,0,2.106-1.083h.06v.857h1.6v-4.242C1714.137,688.259,1712.67,687.165,1710.781,687.165Zm-.208,6.065c-.541,0-1.3-.265-1.3-.946,0-.857.946-1.182,1.752-1.182a2.873,2.873,0,0,1,1.507.373A1.992,1.992,0,0,1,1710.573,693.23Zm9.384-5.829-1.9,4.8H1718l-1.969-4.8h-1.781l2.954,6.715-1.684,3.732h1.724l4.545-10.447Zm-14.9,7.088h1.655V683.415h-1.655Z" transform="translate(-1610.316 -667.909)" fill="#fff" fill-rule="evenodd"/>
  <path id="Path_56" data-name="Path 56" d="M400.5,299.46a1.8,1.8,0,0,0-.4,1.251V320.3a1.708,1.708,0,0,0,.413,1.24l.069.06,10.977-10.977v-.245L400.573,299.4Z" transform="translate(-391.26 -292.785)" fill-rule="evenodd" fill="url(#linear-gradient)"/>
  <path id="Path_57" data-name="Path 57" d="M921.961,638.079l-3.661-3.661v-.256l3.661-3.661.08.049,4.331,2.461c1.24.7,1.24,1.852,0,2.559l-4.331,2.461Z" transform="translate(-898.01 -616.569)" fill-rule="evenodd" fill="url(#linear-gradient-2)"/>
  <path id="Path_58" data-name="Path 58" d="M433.186,805.741,429.445,802,418.4,813.045a1.45,1.45,0,0,0,1.841.06l12.946-7.364" transform="translate(-409.155 -784.28)" fill-rule="evenodd" fill="url(#linear-gradient-3)"/>
  <path id="Path_59" data-name="Path 59" d="M433.186,294.13l-12.946-7.353a1.435,1.435,0,0,0-1.841.06l11.045,11.034Z" transform="translate(-409.155 -280.151)" fill-rule="evenodd" fill="url(#linear-gradient-4)"/>
  <path id="Path_60" data-name="Path 60" d="M433.5,967.7,420.641,975a1.459,1.459,0,0,1-1.772.009l-.068.068.068.06a1.462,1.462,0,0,0,1.772-.009l12.946-7.353Z" transform="translate(-409.547 -946.319)" fill-rule="evenodd" opacity="0.2"/>
  <path id="Path_61" data-name="Path 61" d="M1087.921,803.151l-4.421,2.51.08.08,4.331-2.461a1.552,1.552,0,0,0,.926-1.279A1.594,1.594,0,0,1,1087.921,803.151Z" transform="translate(-1059.56 -784.28)" fill-rule="evenodd" opacity="0.12"/>
  <path id="Path_62" data-name="Path 62" d="M402.345,286.734l17.276,9.815a1.628,1.628,0,0,1,.926,1.151,1.552,1.552,0,0,0-.926-1.279l-17.276-9.815c-1.24-.709-2.245-.117-2.245,1.3v.128C400.1,286.615,401.105,286.034,402.345,286.734Z" transform="translate(-391.26 -279.98)" fill="#fff" fill-rule="evenodd" opacity="0.25"/>
</svg>
