<svg id="instagram" xmlns="http://www.w3.org/2000/svg" width="20.953" height="20.953" viewBox="0 0 20.953 20.953">
  <path id="Path_84" data-name="Path 84" d="M211.01,209.005A2.005,2.005,0,1,1,209.005,207,2.005,2.005,0,0,1,211.01,209.005Zm0,0" transform="translate(-198.529 -198.529)" fill="#00b4ff"/>
  <path id="Path_85" data-name="Path 85" d="M145.106,136.872a1.992,1.992,0,0,0-1.142-1.142,3.329,3.329,0,0,0-1.117-.207c-.634-.029-.825-.035-2.431-.035s-1.8.006-2.431.035a3.331,3.331,0,0,0-1.117.207,1.993,1.993,0,0,0-1.142,1.142,3.33,3.33,0,0,0-.207,1.117c-.029.634-.035.825-.035,2.431s.006,1.8.035,2.431a3.329,3.329,0,0,0,.207,1.117,1.992,1.992,0,0,0,1.142,1.142,3.324,3.324,0,0,0,1.117.207c.634.029.824.035,2.431.035s1.8-.006,2.431-.035a3.324,3.324,0,0,0,1.117-.207,1.992,1.992,0,0,0,1.142-1.142,3.332,3.332,0,0,0,.207-1.117c.029-.634.035-.825.035-2.431s-.006-1.8-.035-2.431A3.325,3.325,0,0,0,145.106,136.872Zm-4.69,6.637a3.089,3.089,0,1,1,3.089-3.089A3.089,3.089,0,0,1,140.417,143.509Zm3.211-5.578a.722.722,0,1,1,.722-.722A.722.722,0,0,1,143.628,137.931Zm0,0" transform="translate(-129.94 -129.944)" fill="#00b4ff"/>
  <path id="Path_86" data-name="Path 86" d="M10.476,0A10.476,10.476,0,1,0,20.953,10.476,10.477,10.477,0,0,0,10.476,0Zm5.979,12.956a4.414,4.414,0,0,1-.28,1.46,3.076,3.076,0,0,1-1.759,1.759,4.417,4.417,0,0,1-1.46.28c-.642.029-.846.036-2.48.036S8.638,16.485,8,16.456a4.417,4.417,0,0,1-1.46-.28,3.076,3.076,0,0,1-1.759-1.759,4.413,4.413,0,0,1-.28-1.46c-.03-.642-.036-.847-.036-2.48S4.467,8.638,4.5,8a4.414,4.414,0,0,1,.279-1.46,3.078,3.078,0,0,1,1.76-1.759A4.418,4.418,0,0,1,8,4.5c.642-.029.846-.036,2.48-.036s1.839.007,2.48.036a4.419,4.419,0,0,1,1.46.279,3.077,3.077,0,0,1,1.759,1.76A4.413,4.413,0,0,1,16.456,8c.029.642.036.846.036,2.48S16.485,12.315,16.456,12.956Zm0,0" fill="#00b4ff"/>
</svg>
