<svg xmlns="http://www.w3.org/2000/svg" width="649.797" height="679.883" viewBox="0 0 649.797 679.883">
  <path id="Path_82" data-name="Path 82" d="M460.644,203.988h-34V158.657C426.646,71.173,355.474,0,267.988,0S109.331,71.173,109.331,158.657v45.331h-34A11.327,11.327,0,0,0,64,215.321V498.639a45.375,45.375,0,0,0,45.331,45.33H426.647a45.375,45.375,0,0,0,45.33-45.331V215.321A11.327,11.327,0,0,0,460.644,203.988ZM301.921,440.724a11.336,11.336,0,0,1-11.266,12.584H245.323a11.336,11.336,0,0,1-11.266-12.584l7.149-64.288a44.835,44.835,0,0,1-18.548-36.455,45.331,45.331,0,0,1,90.662,0,44.836,44.836,0,0,1-18.548,36.455ZM358.65,203.988H177.327V158.657a90.661,90.661,0,1,1,181.322,0Z" transform="matrix(0.809, 0.588, -0.588, 0.809, 267.96, -37.618)" fill="#1e1f20"/>
</svg>
