<svg xmlns="http://www.w3.org/2000/svg" width="14.582" height="10.025" viewBox="0 0 14.582 10.025">
  <g id="mail" transform="translate(0 -80)">
    <g id="Group_23" data-name="Group 23" transform="translate(9.666 81.848)">
      <g id="Group_22" data-name="Group 22">
        <path id="Path_17" data-name="Path 17" d="M339.392,148.135l4.916,3.108V144.9Z" transform="translate(-339.392 -144.896)" fill="#00b4ff"/>
      </g>
    </g>
    <g id="Group_25" data-name="Group 25" transform="translate(0 81.848)">
      <g id="Group_24" data-name="Group 24">
        <path id="Path_18" data-name="Path 18" d="M0,144.9v6.347l4.916-3.108Z" transform="translate(0 -144.896)" fill="#00b4ff"/>
      </g>
    </g>
    <g id="Group_27" data-name="Group 27" transform="translate(0.027 80)">
      <g id="Group_26" data-name="Group 26">
        <path id="Path_19" data-name="Path 19" d="M14.6,80H1.844a.9.9,0,0,0-.884.776l7.264,4.786,7.264-4.786A.9.9,0,0,0,14.6,80Z" transform="translate(-0.96 -80)" fill="#00b4ff"/>
      </g>
    </g>
    <g id="Group_29" data-name="Group 29" transform="translate(0.029 85.637)">
      <g id="Group_28" data-name="Group 28">
        <path id="Path_20" data-name="Path 20" d="M9.826,277.921l-1.29.849a.458.458,0,0,1-.5,0l-1.29-.85-5.722,3.619a.9.9,0,0,0,.882.769H14.666a.9.9,0,0,0,.882-.769Z" transform="translate(-1.024 -277.92)" fill="#00b4ff"/>
      </g>
    </g>
  </g>
</svg>
