<svg xmlns="http://www.w3.org/2000/svg" width="12" height="12.025" viewBox="0 0 12 12.025">
  <g id="phone" transform="translate(-0.539)">
    <g id="Group_21" data-name="Group 21" transform="translate(0.539 0)">
      <path id="Path_16" data-name="Path 16" d="M12.224,8.825,10.546,7.147a1.116,1.116,0,0,0-1.858.42,1.142,1.142,0,0,1-1.319.719A5.175,5.175,0,0,1,4.253,5.169a1.086,1.086,0,0,1,.719-1.319,1.116,1.116,0,0,0,.42-1.858L3.714.315A1.2,1.2,0,0,0,2.1.315L.957,1.453c-1.139,1.2.12,4.375,2.937,7.192s5.993,4.135,7.192,2.937l1.139-1.139A1.2,1.2,0,0,0,12.224,8.825Z" transform="translate(-0.539 0)" fill="#00b4ff"/>
    </g>
  </g>
</svg>
