<svg id="question" xmlns="http://www.w3.org/2000/svg" width="15.955" height="15.955" viewBox="0 0 15.955 15.955">
  <g id="Group_38" data-name="Group 38">
    <path id="Path_26" data-name="Path 26" d="M7.978,0a7.978,7.978,0,1,0,7.978,7.978A7.986,7.986,0,0,0,7.978,0ZM7.645,13.3a1,1,0,1,1,1-1A1,1,0,0,1,7.645,13.3Zm1-4.055V10.3a.332.332,0,0,1-.332.332H6.98a.332.332,0,0,1-.332-.332V8.642a1.331,1.331,0,0,1,1.33-1.33,1.33,1.33,0,1,0-1.33-1.33v.332a.332.332,0,0,1-.332.332H4.986a.332.332,0,0,1-.332-.332V5.983A3.324,3.324,0,1,1,8.642,9.241Z" fill="#fff"/>
  </g>
</svg>
