<svg xmlns="http://www.w3.org/2000/svg" width="12.325" height="13.955" viewBox="0 0 12.325 13.955">
  <g id="shield_3_" data-name="shield (3)" transform="translate(-29.896 0)">
    <path id="Path_24" data-name="Path 24" d="M121.472,100.685a12.4,12.4,0,0,0,.469,2.513,6.8,6.8,0,0,0,3.2,4.264,6.8,6.8,0,0,0,3.2-4.264,12.4,12.4,0,0,0,.469-2.513l-3.667-1.833Z" transform="translate(-89.08 -96.158)" fill="#fff"/>
    <path id="Path_25" data-name="Path 25" d="M42.215,3.261a.409.409,0,0,0-.225-.344L36.242.043a.409.409,0,0,0-.366,0L30.128,2.917a.409.409,0,0,0-.225.344,14.485,14.485,0,0,0,.58,4.389A10.709,10.709,0,0,0,32.238,11.2a8.31,8.31,0,0,0,3.675,2.725.409.409,0,0,0,.291,0A8.31,8.31,0,0,0,39.879,11.2,10.709,10.709,0,0,0,41.635,7.65a14.486,14.486,0,0,0,.58-4.389Zm-5.975,8.87a.409.409,0,0,1-.362,0,7.519,7.519,0,0,1-3.8-4.854,13.348,13.348,0,0,1-.521-2.967.409.409,0,0,1,.225-.391l4.094-2.047a.409.409,0,0,1,.366,0l4.094,2.047a.409.409,0,0,1,.225.391,13.348,13.348,0,0,1-.522,2.967A7.519,7.519,0,0,1,36.24,12.131Z" transform="translate(0)" fill="#fff"/>
  </g>
</svg>
