<svg xmlns="http://www.w3.org/2000/svg" width="280.73" height="317.849" viewBox="0 0 280.73 317.849">
  <path id="shield-background" d="M280.575,74.283a9.31,9.31,0,0,0-5.135-7.844L144.529.983a9.313,9.313,0,0,0-8.329,0L5.29,66.439A9.31,9.31,0,0,0,.155,74.283c-.1,1.906-2.252,47.285,13.206,99.97,9.147,31.173,22.6,58.4,39.988,80.924a189.266,189.266,0,0,0,83.7,62.063,9.319,9.319,0,0,0,6.624,0,189.262,189.262,0,0,0,83.7-62.063c17.387-22.524,30.841-49.751,39.988-80.924,15.458-52.685,13.306-98.065,13.206-99.97ZM144.492,276.3a9.31,9.31,0,0,1-8.254,0C94.774,255.8,65.656,218.6,49.694,165.75A304.007,304.007,0,0,1,37.816,98.163a9.311,9.311,0,0,1,5.13-8.908L136.2,42.628a9.315,9.315,0,0,1,8.329,0l93.257,46.628a9.311,9.311,0,0,1,5.13,8.908,304.011,304.011,0,0,1-11.878,67.586C215.075,218.6,185.957,255.8,144.492,276.3Z" fill="#1e1f20"/>
</svg>
