<svg xmlns="http://www.w3.org/2000/svg" width="20.813" height="20.813" viewBox="0 0 20.813 20.813">
  <path id="twitter" d="M10.406,0A10.406,10.406,0,1,0,20.813,10.406,10.407,10.407,0,0,0,10.406,0Zm4.751,8.114q.007.154.007.309a6.75,6.75,0,0,1-6.8,6.8h0a6.761,6.761,0,0,1-3.661-1.073,4.858,4.858,0,0,0,.57.033,4.793,4.793,0,0,0,2.967-1.022A2.391,2.391,0,0,1,6.012,11.5a2.381,2.381,0,0,0,1.079-.041A2.389,2.389,0,0,1,5.175,9.115c0-.011,0-.02,0-.03a2.372,2.372,0,0,0,1.082.3,2.391,2.391,0,0,1-.739-3.189,6.781,6.781,0,0,0,4.923,2.5,2.39,2.39,0,0,1,4.07-2.178,4.791,4.791,0,0,0,1.517-.58,2.4,2.4,0,0,1-1.05,1.321,4.764,4.764,0,0,0,1.372-.376,4.854,4.854,0,0,1-1.191,1.237Zm0,0" fill="#00b4ff"/>
</svg>
