<svg xmlns="http://www.w3.org/2000/svg" width="129" height="41" viewBox="0 0 129 41">
  <g id="windows-badge" transform="translate(-326.3 -17)">
    <path id="Path_63" data-name="Path 63" d="M450.8,57.5h-120a4.012,4.012,0,0,1-4-4v-32a4.012,4.012,0,0,1,4-4h120a4.012,4.012,0,0,1,4,4v32A4.012,4.012,0,0,1,450.8,57.5Z" fill="none" stroke="#dcdcdc" stroke-width="1"/>
    <g id="Group_47" data-name="Group 47">
      <g id="bag_3_">
        <path id="Path_64" data-name="Path 64" d="M345,46.8l-9-1.3V37.9h9Zm0-9.6h-9V30l9-1.3Zm12.3,11.3-11.6-1.7V37.9h11.6Zm0-11.3H345.7V28.7L357.3,27Z" fill="#fff"/>
      </g>
    </g>
    <g id="Group_48" data-name="Group 48">
      <path id="Path_65" data-name="Path 65" d="M372.8,32.7a5.925,5.925,0,0,1-2.3.4,3.857,3.857,0,0,1-2.8-1,3.956,3.956,0,0,1-1-2.8,3.753,3.753,0,0,1,4-3.9,6.77,6.77,0,0,1,1.9.3l-.2.8a3.506,3.506,0,0,0-1.6-.3,2.784,2.784,0,0,0-3,3,2.709,2.709,0,0,0,2.9,3A3.475,3.475,0,0,0,372,32V29.8h-1.5V29h2.4v3.7Z" fill="#fff"/>
      <path id="Path_66" data-name="Path 66" d="M374.8,30.5a1.757,1.757,0,0,0,1.8,1.9,3.061,3.061,0,0,0,1.5-.3l.2.7a3.615,3.615,0,0,1-1.8.3,2.494,2.494,0,0,1-2.6-2.7c0-1.6.9-2.9,2.5-2.9a2.263,2.263,0,0,1,2.2,2.5v.5h-3.8Zm2.9-.7c0-.6-.3-1.6-1.3-1.6s-1.4.9-1.5,1.6Z" fill="#fff"/>
      <path id="Path_67" data-name="Path 67" d="M381,26.1v1.5h1.4v.7H381v2.9c0,.7.2,1,.7,1a1.083,1.083,0,0,0,.6-.1v.7a2.22,2.22,0,0,1-.9.1,1.053,1.053,0,0,1-1-.4,1.955,1.955,0,0,1-.4-1.4V28.2h-.8v-.7h.8V26.2Z" fill="#fff"/>
      <path id="Path_68" data-name="Path 68" d="M386.9,26.1a.576.576,0,0,1-.6.6.6.6,0,1,1,.6-.6ZM385.8,33V27.6h1V33Z" fill="#fff"/>
      <path id="Path_69" data-name="Path 69" d="M389.5,26.1v1.5h1.4v.7h-1.4v2.9c0,.7.2,1,.7,1a1.083,1.083,0,0,0,.6-.1v.7a2.22,2.22,0,0,1-.9.1,1.053,1.053,0,0,1-1-.4,1.955,1.955,0,0,1-.4-1.4V28.2h-.8v-.7h.8V26.2Z" fill="#fff"/>
      <path id="Path_70" data-name="Path 70" d="M399.1,30.3a2.677,2.677,0,0,1-2.7,2.9,2.634,2.634,0,0,1-2.6-2.8,2.665,2.665,0,0,1,2.6-2.9A2.549,2.549,0,0,1,399.1,30.3Zm-4.2,0c0,1.2.7,2.1,1.6,2.1s1.6-.9,1.6-2.1c0-.9-.5-2.1-1.6-2.1S394.9,29.3,394.9,30.3Z" fill="#fff"/>
      <path id="Path_71" data-name="Path 71" d="M400.3,29.1V27.6h.9l.1.9h0a2.059,2.059,0,0,1,1.8-1c.7,0,1.9.4,1.9,2.3V33h-1V29.9c0-.9-.3-1.6-1.2-1.6a1.521,1.521,0,0,0-1.3,1,4.331,4.331,0,0,0-.1.5V33h-1V29.1Z" fill="#fff"/>
      <path id="Path_72" data-name="Path 72" d="M369.3,49.2l-2.7-10.9h1.5l1.3,5.5c.3,1.4.6,2.7.8,3.8h0c.2-1.1.5-2.4.9-3.8l1.4-5.5H374l1.3,5.5c.3,1.3.6,2.6.8,3.7h0a34.185,34.185,0,0,1,.9-3.8l1.4-5.5h1.4l-3.1,10.9h-1.5l-1.4-5.7a32.121,32.121,0,0,1-.7-3.6h0c-.2,1.1-.4,2.1-.8,3.6l-1.5,5.7h-1.5Z" fill="#fff"/>
      <path id="Path_73" data-name="Path 73" d="M382.3,39.1a.839.839,0,0,1-.9.9.9.9,0,0,1,0-1.8Q382.3,38.35,382.3,39.1Zm-1.6,10.1V41.4h1.4v7.8Z" fill="#fff"/>
      <path id="Path_74" data-name="Path 74" d="M383.9,43.5a13.422,13.422,0,0,0-.1-2.1h1.3l.1,1.3h0a3.013,3.013,0,0,1,2.6-1.5c1.1,0,2.7.6,2.7,3.3v4.7h-1.4V44.7c0-1.3-.5-2.3-1.8-2.3a2.039,2.039,0,0,0-1.9,1.5,1.483,1.483,0,0,0-.1.7v4.7h-1.4V43.5Z" fill="#fff"/>
      <path id="Path_75" data-name="Path 75" d="M399.4,37.7v9.5a12.122,12.122,0,0,0,.1,2h-1.3l-.1-1.4h0a2.76,2.76,0,0,1-2.6,1.5c-1.9,0-3.3-1.6-3.3-4,0-2.6,1.6-4.2,3.5-4.2a2.5,2.5,0,0,1,2.3,1.2h0V37.6h1.4ZM398,44.5a1.268,1.268,0,0,0-.1-.6,2.043,2.043,0,0,0-2-1.6c-1.5,0-2.3,1.3-2.3,3,0,1.6.8,2.9,2.3,2.9a2.2,2.2,0,0,0,2.1-1.7c0-.2.1-.4.1-.6V44.5Z" fill="#fff"/>
      <path id="Path_76" data-name="Path 76" d="M408.3,45.2a3.859,3.859,0,0,1-3.9,4.2,3.711,3.711,0,0,1-3.7-4,3.866,3.866,0,0,1,3.9-4.2C406.8,41.2,408.3,42.8,408.3,45.2Zm-6.1.1c0,1.7,1,3,2.4,3,1.3,0,2.4-1.3,2.4-3,0-1.3-.7-3-2.3-3C402.9,42.2,402.2,43.8,402.2,45.3Z" fill="#fff"/>
      <path id="Path_77" data-name="Path 77" d="M410.1,41.3l1,4c.2.9.4,1.7.6,2.5h0c.2-.8.4-1.6.7-2.5l1.3-4h1.2l1.2,3.9c.3.9.5,1.8.7,2.6h0a12.883,12.883,0,0,1,.6-2.5l1.1-3.9h1.4l-2.5,7.8h-1.3l-1.2-3.7a19.738,19.738,0,0,1-.7-2.6h0a25.042,25.042,0,0,1-.7,2.6l-1.3,3.7H411l-2.3-7.8h1.4Z" fill="#fff"/>
      <path id="Path_78" data-name="Path 78" d="M421,47.7a3.568,3.568,0,0,0,1.9.6c1,0,1.5-.5,1.5-1.2S424,46,423,45.7c-1.4-.5-2.1-1.3-2.1-2.2,0-1.3,1-2.3,2.7-2.3a3.312,3.312,0,0,1,1.9.5l-.4,1a3.017,3.017,0,0,0-1.6-.5,1.168,1.168,0,0,0-1.3,1.1c0,.6.5.9,1.5,1.3,1.3.5,2,1.2,2,2.4,0,1.4-1.1,2.3-2.9,2.3a4.767,4.767,0,0,1-2.2-.5Z" fill="#fff"/>
      <path id="Path_79" data-name="Path 79" d="M432.3,40h0l-1.8,1-.3-1.1,2.3-1.2h1.2V49.2h-1.4V40Z" fill="#fff"/>
      <path id="Path_80" data-name="Path 80" d="M443.5,43.8c0,3.6-1.3,5.5-3.6,5.5-2,0-3.4-1.9-3.5-5.4,0-3.5,1.5-5.5,3.6-5.5C442.3,38.5,443.5,40.5,443.5,43.8Zm-5.7.2c0,2.7.8,4.3,2.1,4.3,1.4,0,2.1-1.7,2.1-4.4,0-2.6-.7-4.3-2.1-4.3C438.7,39.6,437.8,41.1,437.8,44Z" fill="#fff"/>
    </g>
  </g>
</svg>
